:FULLY-SPECIFIED
:FORCE-ALL-JOINTS-BE-3DOF
:DEGREES
340
root 9.36931 16.6883 11.9952 5.96719 10.5762 -1.11823
lfemur 7.62469 6.8686 -11.5975
ltibia 42.0007 0 0
lfoot 12.0195 2.27104 0
ltoes -11.6055 0 0
rfemur -34.4219 2.92398 23.2088
rtibia 40.008 0 0
rfoot -13.0697 0.510948 0
rtoes -12.7949 0 0
lowerback -6.31054 -4.30579 -2.48463
upperback -1.52397 -5.65298 3.34475
thorax 2.52423 -2.8507 4.35473
lowerneck -19.8247 -5.47876 -13.3281
upperneck 20.7284 -7.15969 14.3311
head 11.0167 -2.69351 6.39472
lclavicle -2.49726e-15 -1.0138e-15 0
lhumerus -27.904 -21.6107 100.492
lradius 24.5934 0 0
lwrist 3.32087 0 0
lhand -10.2962 -22.4095 0
lfingers 7.12502 0 0
lthumb 15.6985 6.97513 0
rclavicle -2.49726e-15 -1.0138e-15 0
rhumerus -46.2396 4.43137 -81.2555
rradius 30.9415 0 0
rwrist -16.5278 0 0
rhand -28.6274 -24.5165 0
rfingers 7.12502 0 0
rthumb -1.99184 -54.4868 0
341
root 9.35632 16.6941 12.153 5.93026 10.5229 -1.27402
lfemur 6.83501 6.92807 -11.3534
ltibia 43.0942 0 0
lfoot 12.2007 2.46449 0
ltoes -11.7395 0 0
rfemur -33.9224 2.73193 23.736
rtibia 40.2356 0 0
rfoot -12.7969 0.944635 0
rtoes -12.6279 0 0
lowerback -6.25708 -4.22735 -2.35587
upperback -1.52772 -5.56085 3.36798
thorax 2.47532 -2.80215 4.31955
lowerneck -19.8431 -5.49454 -13.3286
upperneck 20.7172 -7.18387 14.3507
head 11.0207 -2.70161 6.39787
lclavicle -5.25602e-16 -1.35207e-15 0
lhumerus -28.4707 -21.1687 100.625
lradius 24.3178 0 0
lwrist 3.13879 0 0
lhand -10.3601 -22.4343 0
lfingers 7.12502 0 0
lthumb 15.6369 6.95444 0
rclavicle -5.25602e-16 -1.35207e-15 0
rhumerus -45.9959 4.61456 -81.2721
rradius 31.1115 0 0
rwrist -16.6154 0 0
rhand -28.7148 -24.4712 0
rfingers 7.12502 0 0
rthumb -2.07631 -54.4407 0
342
root 9.3451 16.7003 12.3066 5.90144 10.4586 -1.41225
lfemur 6.0188 6.97178 -11.1689
ltibia 44.0542 0 0
lfoot 12.255 2.66114 0
ltoes -11.8214 0 0
rfemur -33.4232 2.59181 24.1964
rtibia 40.3606 0 0
rfoot -12.595 1.3195 0
rtoes -12.4948 0 0
lowerback -6.21195 -4.14433 -2.23882
upperback -1.52806 -5.4611 3.38541
thorax 2.43506 -2.75017 4.28464
lowerneck -19.8575 -5.51196 -13.3266
upperneck 20.7104 -7.20961 14.361
head 11.0253 -2.71137 6.39686
lclavicle 1.11816e-15 -1.59028e-15 0
lhumerus -29.0223 -20.7952 100.731
lradius 24.1079 0 0
lwrist 3.02965 0 0
lhand -10.4282 -22.4533 0
lfingers 7.12502 0 0
lthumb 15.5713 6.93988 0
rclavicle 1.11816e-15 -1.59028e-15 0
rhumerus -45.7401 4.82156 -81.2964
rradius 31.3003 0 0
rwrist -16.7115 0 0
rhand -28.7975 -24.4329 0
rfingers 7.12502 0 0
rthumb -2.15617 -54.4017 0
343
root 9.33526 16.7074 12.4563 5.87905 10.3787 -1.53513
lfemur 5.13946 7.00575 -11.047
ltibia 44.9329 0 0
lfoot 12.1753 2.8692 0
ltoes -11.8462 0 0
rfemur -32.9181 2.49539 24.6053
rtibia 40.4121 0 0
rfoot -12.4634 1.64445 0
rtoes -12.393 0 0
lowerback -6.17145 -4.05419 -2.13043
upperback -1.52504 -5.35058 3.39671
thorax 2.40066 -2.69311 4.24832
lowerneck -19.8697 -5.53102 -13.3208
upperneck 20.7083 -7.23691 14.3611
head 11.0308 -2.72273 6.39116
lclavicle 2.48366e-15 -1.71398e-15 0
lhumerus -29.5734 -20.4759 100.81
lradius 23.9548 0 0
lwrist 2.98862 0 0
lhand -10.5068 -22.466 0
lfingers 7.12502 0 0
lthumb 15.4955 6.93226 0
rclavicle 2.48366e-15 -1.71398e-15 0
rhumerus -45.4652 5.06298 -81.3292
rradius 31.5219 0 0
rwrist -16.8249 0 0
rhand -28.8794 -24.4003 0
rfingers 7.12502 0 0
rthumb -2.2353 -54.3683 0
344
root 9.32632 16.7157 12.6026 5.86085 10.2795 -1.64627
lfemur 4.16435 7.03658 -10.9855
ltibia 45.7889 0 0
lfoot 11.9648 3.09618 0
ltoes -11.8136 0 0
rfemur -32.4003 2.43059 24.9826
rtibia 40.425 0 0
rfoot -12.3953 1.93262 0
rtoes -12.3171 0 0
lowerback -6.1315 -3.95481 -2.02679
upperback -1.51892 -5.22681 3.40206
thorax 2.36885 -2.62963 4.20898
lowerneck -19.8816 -5.55154 -13.3102
upperneck 20.7109 -7.26557 14.3511
head 11.0374 -2.73545 6.38062
lclavicle 3.64442e-15 -1.71894e-15 0
lhumerus -30.139 -20.1914 100.863
lradius 23.8446 0 0
lwrist 3.00493 0 0
lhand -10.6014 -22.4727 0
lfingers 7.12502 0 0
lthumb 15.4044 6.93169 0
rclavicle 3.64442e-15 -1.71894e-15 0
rhumerus -45.1653 5.34667 -81.3708
rradius 31.7878 0 0
rwrist -16.963 0 0
rhand -28.9647 -24.3714 0
rfingers 7.12502 0 0
rthumb -2.31765 -54.3384 0
345
root 9.31824 16.7252 12.7456 5.84662 10.1618 -1.74643
lfemur 3.10017 7.06404 -10.9805
ltibia 46.6209 0 0
lfoot 11.6317 3.34072 0
ltoes -11.7273 0 0
rfemur -31.8698 2.3956 25.3298
rtibia 40.4003 0 0
rfoot -12.3867 2.18596 0
rtoes -12.2656 0 0
lowerback -6.0922 -3.84675 -1.9276
upperback -1.50985 -5.09061 3.40187
thorax 2.33964 -2.56012 4.16686
lowerneck -19.8932 -5.57341 -13.2952
upperneck 20.7177 -7.29546 14.3315
head 11.0452 -2.74945 6.36555
lclavicle 4.61174e-15 -1.61386e-15 0
lhumerus -30.7178 -19.9394 100.893
lradius 23.775 0 0
lwrist 3.07498 0 0
lhand -10.7107 -22.4739 0
lfingers 7.12502 0 0
lthumb 15.2991 6.93756 0
rclavicle 4.61174e-15 -1.61386e-15 0
rhumerus -44.8421 5.66961 -81.4207
rradius 32.0948 0 0
rwrist -17.1241 0 0
rhand -29.053 -24.3459 0
rfingers 7.12502 0 0
rthumb -2.4029 -54.3118 0
346
root 9.311 16.7356 12.8856 5.83615 10.0268 -1.83634
lfemur 1.9536 7.08789 -11.0281
ltibia 47.4276 0 0
lfoot 11.1839 3.60148 0
ltoes -11.5912 0 0
rfemur -31.3268 2.38861 25.6485
rtibia 40.3392 0 0
rfoot -12.4332 2.40646 0
rtoes -12.2367 0 0
lowerback -6.05369 -3.73057 -1.83259
upperback -1.498 -4.94277 3.39654
thorax 2.31299 -2.48499 4.12218
lowerneck -19.9046 -5.5965 -13.2762
upperneck 20.7287 -7.32645 14.3029
head 11.054 -2.7646 6.34629
lclavicle 5.39694e-15 -1.40742e-15 0
lhumerus -31.3085 -19.718 100.899
lradius 23.7433 0 0
lwrist 3.19515 0 0
lhand -10.8334 -22.47 0
lfingers 7.12502 0 0
lthumb 15.1808 6.94927 0
rclavicle 5.39694e-15 -1.40742e-15 0
rhumerus -44.4971 6.02876 -81.4784
rradius 32.4396 0 0
rwrist -17.3061 0 0
rhand -29.1439 -24.3234 0
rfingers 7.12502 0 0
rthumb -2.49069 -54.2882 0
347
root 9.30458 16.747 13.0227 5.82924 9.87558 -1.91676
lfemur 0.73132 7.10788 -11.1244
ltibia 48.2079 0 0
lfoot 10.6295 3.8771 0
ltoes -11.4093 0 0
rfemur -30.7715 2.40782 25.9403
rtibia 40.2425 0 0
rfoot -12.5308 2.59609 0
rtoes -12.2289 0 0
lowerback -6.01609 -3.60683 -1.74148
upperback -1.4835 -4.78413 3.38648
thorax 2.28889 -2.40462 4.0752
lowerneck -19.9155 -5.62069 -13.2534
upperneck 20.7434 -7.35842 14.2662
head 11.0637 -2.78082 6.32314
lclavicle 6.01131e-15 -1.10831e-15 0
lhumerus -31.9098 -19.5251 100.885
lradius 23.7472 0 0
lwrist 3.36182 0 0
lhand -10.9683 -22.4618 0
lfingers 7.12502 0 0
lthumb 15.0508 6.96624 0
rclavicle 6.01131e-15 -1.10831e-15 0
rhumerus -44.1321 6.42107 -81.5433
rradius 32.8192 0 0
rwrist -17.5073 0 0
rhand -29.2371 -24.3037 0
rfingers 7.12502 0 0
rthumb -2.58068 -54.2673 0
348
root 9.29893 16.7592 13.1572 5.82567 9.70917 -1.98844
lfemur -0.559976 7.12379 -11.2654
ltibia 48.9604 0 0
lfoot 9.9765 4.16622 0
ltoes -11.1854 0 0
rfemur -30.2041 2.45139 26.2067
rtibia 40.1116 0 0
rfoot -12.6751 2.75683 0
rtoes -12.2406 0 0
lowerback -5.97953 -3.4761 -1.65399
upperback -1.46652 -4.61547 3.37209
thorax 2.26734 -2.31942 4.02614
lowerneck -19.9262 -5.64587 -13.2273
upperneck 20.7615 -7.39122 14.2218
head 11.0743 -2.79801 6.29644
lclavicle 6.46619e-15 -7.25222e-16 0
lhumerus -32.5202 -19.3587 100.85
lradius 23.7842 0 0
lwrist 3.5714 0 0
lhand -11.1141 -22.4495 0
lfingers 7.12502 0 0
lthumb 14.9102 6.98786 0
rclavicle 6.46619e-15 -7.25222e-16 0
rhumerus -43.7487 6.84353 -81.6148
rradius 33.2302 0 0
rwrist -17.7256 0 0
rhand -29.3322 -24.2865 0
rfingers 7.12502 0 0
rthumb -2.67252 -54.2488 0
349
root 9.29405 16.7722 13.2892 5.82523 9.52864 -2.05212
lfemur -1.9136 7.13537 -11.4472
ltibia 49.6841 0 0
lfoot 9.2329 4.46748 0
ltoes -10.9233 0 0
rfemur -29.6247 2.51754 26.4493
rtibia 39.9472 0 0
rfoot -12.8621 2.89064 0
rtoes -12.2702 0 0
lowerback -5.94413 -3.33893 -1.56983
upperback -1.4472 -4.43763 3.35377
thorax 2.24831 -2.22977 3.97523
lowerneck -19.9364 -5.67192 -13.1981
upperneck 20.7829 -7.42474 14.1705
head 11.0856 -2.81604 6.2665
lclavicle 6.77286e-15 -2.66837e-16 0
lhumerus -33.1385 -19.2167 100.797
lradius 23.8519 0 0
lwrist 3.82027 0 0
lhand -11.2697 -22.4339 0
lfingers 7.12502 0 0
lthumb 14.7603 7.01353 0
rclavicle 6.77286e-15 -2.66837e-16 0
rhumerus -43.3484 7.29308 -81.6925
rradius 33.6695 0 0
rwrist -17.9593 0 0
rhand -29.4288 -24.2715 0
rfingers 7.12502 0 0
rthumb -2.76587 -54.2324 0
350
root 9.2899 16.7858 13.4188 5.82771 9.33504 -2.10855
lfemur -3.32287 7.14238 -11.666
ltibia 50.3776 0 0
lfoot 8.40674 4.77953 0
ltoes -10.6269 0 0
rfemur -29.0335 2.60444 26.6696
rtibia 39.7506 0 0
rfoot -13.0876 2.99951 0
rtoes -12.3161 0 0
lowerback -5.91002 -3.19588 -1.48872
upperback -1.42571 -4.2514 3.33193
thorax 2.2318 -2.13606 3.92272
lowerneck -19.9462 -5.69872 -13.1661
upperneck 20.8071 -7.45883 14.1128
head 11.0976 -2.83484 6.23364
lclavicle 6.94265e-15 2.58154e-16 0
lhumerus -33.7633 -19.0971 100.727
lradius 23.9477 0 0
lwrist 4.10483 0 0
lhand -11.4336 -22.4153 0
lfingers 7.12502 0 0
lthumb 14.6023 7.04267 0
rclavicle 6.94265e-15 2.58154e-16 0
rhumerus -42.933 7.7667 -81.7757
rradius 34.1338 0 0
rwrist -18.2065 0 0
rhand -29.5267 -24.2583 0
rfingers 7.12502 0 0
rthumb -2.86039 -54.2178 0
351
root 9.28645 16.7999 13.5464 5.8329 9.12945 -2.15848
lfemur -4.7811 7.1446 -11.9178
ltibia 51.0396 0 0
lfoot 7.50604 5.10101 0
ltoes -10.3001 0 0
rfemur -28.4306 2.71029 26.8692
rtibia 39.5228 0 0
rfoot -13.3472 3.0854 0
rtoes -12.3766 0 0
lowerback -5.87731 -3.04752 -1.41039
upperback -1.40218 -4.0576 3.30698
thorax 2.21778 -2.0387 3.86883
lowerneck -19.9556 -5.72614 -13.1318
upperneck 20.8339 -7.49337 14.0495
head 11.1101 -2.85429 6.19817
lclavicle 6.98687e-15 8.41064e-16 0
lhumerus -34.3934 -18.9977 100.641
lradius 24.0692 0 0
lwrist 4.42145 0 0
lhand -11.6046 -22.3943 0
lfingers 7.12502 0 0
lthumb 14.4375 7.07466 0
rclavicle 6.98687e-15 8.41064e-16 0
rhumerus -42.504 8.26135 -81.8639
rradius 34.62 0 0
rwrist -18.4651 0 0
rhand -29.6254 -24.2467 0
rfingers 7.12502 0 0
rthumb -2.95572 -54.2048 0
352
root 9.28369 16.8146 13.6721 5.84059 8.91292 -2.20265
lfemur -6.28161 7.14177 -12.1988
ltibia 51.6691 0 0
lfoot 6.53883 5.43057 0
ltoes -9.94671 0 0
rfemur -27.8162 2.83327 27.0497
rtibia 39.2648 0 0
rfoot -13.6369 3.15029 0
rtoes -12.4501 0 0
lowerback -5.84614 -2.89442 -1.33455
upperback -1.37678 -3.85703 3.27932
thorax 2.20624 -1.93808 3.81381
lowerneck -19.9645 -5.75407 -13.0955
upperneck 20.863 -7.52822 13.9812
head 11.1232 -2.87429 6.16044
lclavicle 6.91682e-15 1.4732e-15 0
lhumerus -35.0272 -18.9166 100.54
lradius 24.2139 0 0
lwrist 4.76653 0 0
lhand -11.7816 -22.3714 0
lfingers 7.12502 0 0
lthumb 14.2669 7.10891 0
rclavicle 6.91682e-15 1.4732e-15 0
rhumerus -42.0632 8.77399 -81.9566
rradius 35.1249 0 0
rwrist -18.7335 0 0
rhand -29.7247 -24.2365 0
rfingers 7.12502 0 0
rthumb -3.05154 -54.193 0
